<svg xmlns="http://www.w3.org/2000/svg" version="1.1" xmlns:xlink="http://www.w3.org/1999/xlink" xmlns:svgjs="http://svgjs.dev/svgjs" width="2000" height="641" viewBox="0 0 2000 641"><g transform="matrix(1,0,0,1,-1.2121212121212466,1.1091218231524067)"><svg viewBox="0 0 396 127" data-background-color="#ffffff" preserveAspectRatio="xMidYMid meet" height="641" width="2000" xmlns="http://www.w3.org/2000/svg" xmlns:xlink="http://www.w3.org/1999/xlink"><g id="tight-bounds" transform="matrix(1,0,0,1,0.2400000000000091,-0.2197480055231722)"><svg viewBox="0 0 395.52 127.43949601104636" height="127.43949601104636" width="395.52"><g><svg viewBox="0 0 679.9479696888538 219.08431070712422" height="127.43949601104636" width="395.52"><g transform="matrix(1,0,0,1,284.4279696888539,40.34446162174514)"><svg viewBox="0 0 395.52 138.39538746363394" height="138.39538746363394" width="395.52"><g id="textblocktransform"><svg viewBox="0 0 395.52 138.39538746363394" height="138.39538746363394" width="395.52" id="textblock"><g><svg viewBox="0 0 395.52 138.39538746363394" height="138.39538746363394" width="395.52"><g transform="matrix(1,0,0,1,0,0)"><svg width="395.52" viewBox="1.22 -31.79 92.3 32.3" height="138.39538746363394" data-palette-color="#64ffda"><path d="M1.22-31.79L2.54-21.78 4.81-22.05 5.69-31.4 1.22-31.79ZM6.3-31.79L7.59-21.78 9.91-22.05 10.79-31.4 6.3-31.79ZM12.72 0L24.44 0 24.75-1.95 20.29-2.78 21.82-23.61 30.2-0.76 33.32-1.22 42.62-24.51 43.99-2.95 39.94-1.81 39.67 0 52.76 0 53-1.95 48.56-2.78 47.29-27.59 51.39-28.52 51.63-30.37 41.99-30.37 40.26-26.44 32.76-7.64 26.36-25.63 24.46-30.37 14.62-30.37 14.38-28.52 18.85-27.49 17.06-2.95 12.99-1.81 12.72 0ZM53.9-28.52L58.52-27.27 58.52-3.15 54.32-1.81 54.07 0 67.57 0 67.84-1.95 63.23-3.03 63.23-27.37 67.43-28.52 67.67-30.37 54.24-30.37 53.9-28.52ZM63.84-14.77L69.99-6.37Q72.38-3.08 74.7-1.28 77.02 0.51 79.83 0.51L79.83 0.51Q81.49 0.51 83.03-0.02L83.03-0.02 83.27-1.71 82.37-2.03Q80.85-2.49 79.63-3.36 78.41-4.22 77.2-5.52 76-6.81 73.8-9.4L73.8-9.4 68.26-15.94 77.36-27.37 81.68-28.52 81.98-30.37 69.94-30.37 69.75-28.52 73.53-27.37 67.52-19.48Q66.99-18.8 65.68-17.32 64.37-15.84 63.81-15.28L63.81-15.28 63.84-14.77ZM83.95-31.79L85.27-21.78 87.54-22.05 88.42-31.4 83.95-31.79ZM89.03-31.79L90.32-21.78 92.64-22.05 93.52-31.4 89.03-31.79Z" opacity="1" transform="matrix(1,0,0,1,0,0)" fill="#64ffda" class="wordmark-text-0" data-fill-palette-color="primary" id="text-0"></path></svg></g></svg></g></svg></g></svg></g><g><svg viewBox="0 0 219.08431070712422 219.08431070712422" height="219.08431070712422" width="219.08431070712422"><g><svg></svg></g><g id="icon-0"><svg viewBox="0 0 219.08431070712422 219.08431070712422" height="219.08431070712422" width="219.08431070712422"><g><path d="M0 109.542c0-60.498 49.044-109.542 109.542-109.542 60.498 0 109.542 49.044 109.542 109.542 0 60.498-49.044 109.542-109.542 109.542-60.498 0-109.542-49.044-109.542-109.542zM109.542 206.604c53.606 0 97.062-43.456 97.062-97.062 0-53.606-43.456-97.062-97.062-97.061-53.606 0-97.062 43.456-97.061 97.061 0 53.606 43.456 97.062 97.061 97.062z" data-fill-palette-color="accent" fill="#64ffda" stroke="transparent"></path></g><g transform="matrix(1,0,0,1,53.71921434273705,53.712099363532275)"><svg viewBox="0 0 111.64588202165012 111.66011198005967" height="111.66011198005967" width="111.64588202165012"><g><svg xmlns="http://www.w3.org/2000/svg" xmlns:xlink="http://www.w3.org/1999/xlink" version="1.1" x="0" y="0" viewBox="0.46199999999999974 0.347 47.075 47.080999999999996" enable-background="new 0 0 48 48" xml:space="preserve" height="111.66011198005967" width="111.64588202165012" class="icon-cg-0" data-fill-palette-color="accent" id="cg-0"><path d="M24 47.424c0.008 0 0.015 0 0.022 0 0.01 0 0.02 0.004 0.029 0.004 0.001 0 0.001 0 0.002 0s0.001 0 0.001 0c0.015 0 0.03-0.006 0.045-0.006 12.933-0.055 23.438-10.59 23.438-23.537 0-12.915-10.456-23.43-23.347-23.533-0.005 0-0.011 0-0.015 0C24.117 0.351 24.06 0.347 24 0.347c-12.979 0-23.538 10.56-23.538 23.538C0.462 36.865 11.021 47.424 24 47.424zM44.374 23.885c0 2.675-0.523 5.228-1.466 7.57-1.109-0.391-2.838-0.938-5.087-1.461 0.467-1.98 0.725-4.025 0.725-6.109 0-2.11-0.265-4.183-0.744-6.188 1.665-0.393 3.36-0.871 5.085-1.439C43.842 18.615 44.374 21.189 44.374 23.885zM35.381 23.885c0 1.869-0.235 3.703-0.66 5.476-2.625-0.463-5.707-0.818-9.138-0.896v-9.169c2.859-0.078 5.917-0.371 9.122-0.951C35.141 20.138 35.381 21.994 35.381 23.885zM22.418 42.912c-3.653-2.662-6.427-6.299-8.052-10.436 2.816-0.48 5.512-0.721 8.052-0.793V42.912zM25.583 42.986V31.68c3.041 0.076 5.792 0.381 8.166 0.775C32.11 36.641 29.295 40.313 25.583 42.986zM25.583 16.092V4.785c3.705 2.67 6.518 6.335 8.159 10.511C30.886 15.784 28.153 16.024 25.583 16.092zM22.418 4.859v11.232c-3-0.082-5.714-0.385-8.061-0.774C15.98 11.171 18.758 7.527 22.418 4.859zM22.418 19.3v9.176c-2.83 0.082-5.852 0.369-9.018 0.943-0.435-1.791-0.674-3.645-0.674-5.535 0-1.869 0.234-3.703 0.66-5.478C15.986 18.865 19.027 19.217 22.418 19.3zM10.304 30.066c-1.695 0.4-3.424 0.889-5.18 1.473-0.963-2.365-1.497-4.947-1.497-7.654 0-2.688 0.527-5.252 1.478-7.604 1.102 0.393 2.868 0.955 5.181 1.494-0.467 1.98-0.724 4.025-0.724 6.109C9.562 25.994 9.825 28.063 10.304 30.066zM6.555 34.396c1.58-0.51 3.137-0.932 4.667-1.283 1.434 3.883 3.756 7.396 6.792 10.246C13.187 41.873 9.12 38.639 6.555 34.396zM30.149 43.309c3.021-2.852 5.329-6.361 6.752-10.238 1.974 0.445 3.53 0.906 4.584 1.258C38.952 38.555 34.931 41.791 30.149 43.309zM41.464 13.405c-1.549 0.497-3.076 0.91-4.578 1.255-1.425-3.86-3.727-7.355-6.736-10.197C34.916 5.975 38.929 9.197 41.464 13.405zM18.015 4.411c-3.049 2.861-5.378 6.39-6.81 10.291-2.03-0.457-3.62-0.935-4.674-1.287C9.095 9.153 13.172 5.903 18.015 4.411z" fill="#64ffda" data-fill-palette-color="accent"></path></svg></g></svg></g></svg></g></svg></g></svg></g><defs></defs></svg><rect width="395.52" height="127.43949601104636" fill="none" stroke="none" visibility="hidden"></rect></g></svg></g></svg>